<svg width="1011" height="206" viewBox="0 0 1011 206" fill="none" xmlns="http://www.w3.org/2000/svg">
<path d="M273.598 48.48C280.425 48.48 286.478 49.2267 291.758 50.72C297.091 52.16 301.385 53.7067 304.638 55.36C307.945 57.0133 309.971 58.1333 310.718 58.72L296.078 83.52C295.225 82.88 293.731 82 291.598 80.88C289.518 79.7067 287.171 78.6667 284.558 77.76C281.945 76.8533 279.438 76.4 277.038 76.4C274.211 76.4 271.865 76.8 269.998 77.6C268.131 78.3467 267.198 79.6533 267.198 81.52C267.198 82.8 267.705 83.9733 268.718 85.04C269.731 86.1067 271.438 87.2 273.838 88.32C276.291 89.44 279.625 90.72 283.838 92.16C287.945 93.4933 291.705 95.1467 295.118 97.12C298.531 99.0933 301.465 101.44 303.918 104.16C306.425 106.88 308.371 110 309.758 113.52C311.145 117.04 311.838 121.013 311.838 125.44C311.838 131.307 310.611 136.32 308.158 140.48C305.758 144.587 302.531 147.92 298.478 150.48C294.425 153.04 289.891 154.907 284.878 156.08C279.918 157.307 274.878 157.92 269.758 157.92C261.918 157.92 254.931 157.067 248.798 155.36C242.718 153.653 237.785 151.813 233.998 149.84C230.265 147.813 227.971 146.373 227.118 145.52L242.238 119.68C242.825 120.16 244.078 120.933 245.998 122C247.971 123.067 250.318 124.187 253.038 125.36C255.811 126.533 258.665 127.547 261.598 128.4C264.531 129.2 267.251 129.6 269.758 129.6C273.118 129.6 275.598 129.12 277.198 128.16C278.798 127.2 279.598 125.813 279.598 124C279.598 122.72 279.091 121.52 278.078 120.4C277.118 119.28 275.358 118.107 272.798 116.88C270.291 115.6 266.718 114.133 262.078 112.48C257.598 110.827 253.331 108.667 249.278 106C245.225 103.333 241.918 99.8667 239.358 95.6C236.798 91.3333 235.518 86 235.518 79.6C235.518 73.0933 237.331 67.52 240.958 62.88C244.585 58.24 249.305 54.6933 255.118 52.24C260.931 49.7333 267.091 48.48 273.598 48.48ZM443.047 156H406.327L391.607 93.44H396.967L382.167 156H345.287L319.847 50.4H355.527L365.927 115.04H365.527L383.287 50.4H405.207L422.967 115.04H422.567L432.967 50.4H468.647L443.047 156ZM505.007 50.4H535.327L578.847 156H545.807L539.087 137.68H501.407L494.607 156H461.487L505.007 50.4ZM511.807 110.8H528.687L520.367 87.52H520.127L511.807 110.8ZM585.901 50.4H622.381C633.634 50.4 642.994 52.6667 650.461 57.2C657.981 61.68 663.634 67.8933 667.421 75.84C671.207 83.7867 673.101 92.88 673.101 103.12C673.101 113.413 671.207 122.533 667.421 130.48C663.634 138.427 657.981 144.667 650.461 149.2C642.994 153.733 633.634 156 622.381 156H585.901V50.4ZM616.861 77.68V128.72H619.581C624.007 128.72 627.741 127.6 630.781 125.36C633.821 123.12 636.141 120.08 637.741 116.24C639.341 112.347 640.141 108.027 640.141 103.28C640.141 98.48 639.341 94.16 637.741 90.32C636.194 86.4267 633.874 83.36 630.781 81.12C627.741 78.8267 624.007 77.68 619.581 77.68H616.861ZM684.636 50.4H755.516V77.28H715.596V90.08H755.516V116.08H715.596V129.12H755.516V156H684.636V50.4ZM813.598 48.48C820.425 48.48 826.478 49.2267 831.758 50.72C837.091 52.16 841.385 53.7067 844.638 55.36C847.945 57.0133 849.971 58.1333 850.718 58.72L836.078 83.52C835.225 82.88 833.731 82 831.598 80.88C829.518 79.7067 827.171 78.6667 824.558 77.76C821.945 76.8533 819.438 76.4 817.038 76.4C814.211 76.4 811.865 76.8 809.998 77.6C808.131 78.3467 807.198 79.6533 807.198 81.52C807.198 82.8 807.705 83.9733 808.718 85.04C809.731 86.1067 811.438 87.2 813.838 88.32C816.291 89.44 819.625 90.72 823.838 92.16C827.945 93.4933 831.705 95.1467 835.118 97.12C838.531 99.0933 841.465 101.44 843.918 104.16C846.425 106.88 848.371 110 849.758 113.52C851.145 117.04 851.838 121.013 851.838 125.44C851.838 131.307 850.611 136.32 848.158 140.48C845.758 144.587 842.531 147.92 838.478 150.48C834.425 153.04 829.891 154.907 824.878 156.08C819.918 157.307 814.878 157.92 809.758 157.92C801.918 157.92 794.931 157.067 788.798 155.36C782.718 153.653 777.785 151.813 773.998 149.84C770.265 147.813 767.971 146.373 767.118 145.52L782.238 119.68C782.825 120.16 784.078 120.933 785.998 122C787.971 123.067 790.318 124.187 793.038 125.36C795.811 126.533 798.665 127.547 801.598 128.4C804.531 129.2 807.251 129.6 809.758 129.6C813.118 129.6 815.598 129.12 817.198 128.16C818.798 127.2 819.598 125.813 819.598 124C819.598 122.72 819.091 121.52 818.078 120.4C817.118 119.28 815.358 118.107 812.798 116.88C810.291 115.6 806.718 114.133 802.078 112.48C797.598 110.827 793.331 108.667 789.278 106C785.225 103.333 781.918 99.8667 779.358 95.6C776.798 91.3333 775.518 86 775.518 79.6C775.518 73.0933 777.331 67.52 780.958 62.88C784.585 58.24 789.305 54.6933 795.118 52.24C800.931 49.7333 807.091 48.48 813.598 48.48ZM864.807 50.4H895.767V156H864.807V50.4ZM970.631 127.2C974.364 127.2 977.964 126.613 981.431 125.44C984.951 124.267 987.671 123.093 989.591 121.92L1002.79 148.16C1000.23 150.293 995.884 152.453 989.751 154.64C983.617 156.827 976.391 157.92 968.071 157.92C960.284 157.92 952.924 156.587 945.991 153.92C939.057 151.2 932.897 147.387 927.511 142.48C922.177 137.573 917.991 131.813 914.951 125.2C911.911 118.533 910.391 111.253 910.391 103.36C910.391 95.4667 911.911 88.1867 914.951 81.52C917.991 74.8 922.177 68.9867 927.511 64.08C932.844 59.12 938.977 55.28 945.911 52.56C952.897 49.84 960.284 48.48 968.071 48.48C976.391 48.48 983.617 49.5733 989.751 51.76C995.884 53.9467 1000.23 56.1067 1002.79 58.24L989.591 84.48C987.671 83.3067 984.951 82.1333 981.431 80.96C977.964 79.7867 974.364 79.2 970.631 79.2C965.564 79.2 961.324 79.92 957.911 81.36C954.497 82.8 951.751 84.72 949.671 87.12C947.644 89.4667 946.177 92.0533 945.271 94.88C944.417 97.6533 943.991 100.4 943.991 103.12C943.991 105.893 944.417 108.693 945.271 111.52C946.177 114.347 947.644 116.96 949.671 119.36C951.751 121.707 954.497 123.6 957.911 125.04C961.324 126.48 965.564 127.2 970.631 127.2Z" fill="url(#paint0_linear_15347_862)"/>
<g clip-path="url(#clip0_15347_862)">
<g filter="url(#filter0_f_15347_862)">
<path d="M163.055 53.3154C163.055 53.3154 172.611 53.3154 176.956 60.7837C177.929 62.4559 178.64 64.5025 178.925 67.0073" stroke="black" stroke-opacity="0.5" stroke-width="1.24471"/>
</g>
<g filter="url(#filter1_d_15347_862)">
<path d="M176.833 59.8722L102.092 103.1L27.3501 59.8722C28.8844 57.2158 31.0729 54.9961 33.7072 53.4242L93.01 19.1867C98.6405 16.0081 105.543 16.0081 111.173 19.1867L170.476 53.4242C173.11 54.9953 175.298 57.2203 176.833 59.8722Z" fill="#00D756"/>
<path d="M176.833 59.8722L102.092 103.1L27.3501 59.8722C28.8844 57.2158 31.0729 54.9961 33.7072 53.4242L93.01 19.1867C98.6405 16.0081 105.543 16.0081 111.173 19.1867L170.476 53.4242C173.11 54.9953 175.298 57.2203 176.833 59.8722Z" fill="url(#paint1_diamond_15347_862)" fill-opacity="0.2"/>
</g>
<path d="M104.001 104.301L103.043 103.702L102.564 104.9L102.444 105.619L102.087 189.372C99.2232 189.368 96.3979 188.716 93.8223 187.465L33.9747 152.864C31.2181 151.269 28.9285 148.979 27.3348 146.222C25.741 143.465 24.8991 140.338 24.8931 137.153V69.0411C24.9081 65.8236 25.7526 62.6644 27.3451 59.8687L104.001 104.301Z" fill="#00D756"/>
<path d="M104.001 104.301L103.043 103.702L102.564 104.9L102.444 105.619L102.087 189.372C99.2232 189.368 96.3979 188.716 93.8223 187.465L33.9747 152.864C31.2181 151.269 28.9285 148.979 27.3348 146.222C25.741 143.465 24.8991 140.338 24.8931 137.153V69.0411C24.9081 65.8236 25.7526 62.6644 27.3451 59.8687L104.001 104.301Z" fill="url(#paint2_diamond_15347_862)" fill-opacity="0.2"/>
<g filter="url(#filter2_dd_15347_862)">
<path d="M179.281 69.0411V137.153C179.275 140.338 178.433 143.465 176.84 146.222C175.246 148.979 172.956 151.269 170.2 152.864L110.08 187.556C107.582 188.736 104.849 189.354 102.088 189.372V103.097L176.829 59.8687C178.419 62.6658 179.263 65.8262 179.281 69.0411Z" fill="#00D756"/>
<path d="M179.281 69.0411V137.153C179.275 140.338 178.433 143.465 176.84 146.222C175.246 148.979 172.956 151.269 170.2 152.864L110.08 187.556C107.582 188.736 104.849 189.354 102.088 189.372V103.097L176.829 59.8687C178.419 62.6658 179.263 65.8262 179.281 69.0411Z" fill="url(#paint3_diamond_15347_862)" fill-opacity="0.2"/>
</g>
<g filter="url(#filter3_di_15347_862)">
<path d="M176.53 60.564L115.278 106.339C112.757 108.222 111.131 111.067 110.787 114.195L102.59 188.774L102.666 108.507L102.655 107.668C102.617 104.912 104.156 102.376 106.618 101.137V101.137L176.53 60.564Z" fill="white"/>
<path d="M176.708 60.8034C176.835 60.7086 176.866 60.5314 176.779 60.3993C176.692 60.2672 176.517 60.2261 176.38 60.3055L106.476 100.874C103.916 102.166 102.317 104.805 102.356 107.672L102.367 108.506L102.367 108.511L102.291 188.774C102.291 188.933 102.415 189.064 102.574 189.073C102.732 189.081 102.87 188.965 102.887 188.807L111.084 114.228C111.419 111.182 113.002 108.412 115.456 106.578L176.708 60.8034Z" stroke="white" stroke-width="0.597717" stroke-linecap="round" stroke-linejoin="round"/>
</g>
<g filter="url(#filter4_f_15347_862)">
<line x1="96.7724" y1="103.64" x2="27.0685" y2="62.5642" stroke="black" stroke-opacity="0.28" stroke-width="1.24471"/>
</g>
<g filter="url(#filter5_f_15347_862)">
<path d="M34.2275 58.7176L100.414 19.709L173.635 58.7176L107.129 98.046L34.2275 58.7176Z" fill="black" fill-opacity="0.09"/>
</g>
<path d="M104.604 101.907L103.406 103.345L102.687 104.902L103.129 103.944L102.088 103.225L27.3193 59.9561L104.604 101.907Z" fill="#F8F8F8"/>
</g>
<defs>
<filter id="filter0_f_15347_862" x="155.586" y="45.2246" width="31.4253" height="29.3213" filterUnits="userSpaceOnUse" color-interpolation-filters="sRGB">
<feFlood flood-opacity="0" result="BackgroundImageFix"/>
<feBlend mode="normal" in="SourceGraphic" in2="BackgroundImageFix" result="shape"/>
<feGaussianBlur stdDeviation="3.73414" result="effect1_foregroundBlur_15347_862"/>
</filter>
<filter id="filter1_d_15347_862" x="24.8607" y="16.8027" width="154.462" height="91.2767" filterUnits="userSpaceOnUse" color-interpolation-filters="sRGB">
<feFlood flood-opacity="0" result="BackgroundImageFix"/>
<feColorMatrix in="SourceAlpha" type="matrix" values="0 0 0 0 0 0 0 0 0 0 0 0 0 0 0 0 0 0 127 0" result="hardAlpha"/>
<feOffset dy="2.48943"/>
<feGaussianBlur stdDeviation="1.24471"/>
<feComposite in2="hardAlpha" operator="out"/>
<feColorMatrix type="matrix" values="0 0 0 0 0 0 0 0 0 0 0 0 0 0 0 0 0 0 0.25 0"/>
<feBlend mode="normal" in2="BackgroundImageFix" result="effect1_dropShadow_15347_862"/>
<feBlend mode="normal" in="SourceGraphic" in2="effect1_dropShadow_15347_862" result="shape"/>
</filter>
<filter id="filter2_dd_15347_862" x="86.529" y="46.7992" width="108.311" height="160.621" filterUnits="userSpaceOnUse" color-interpolation-filters="sRGB">
<feFlood flood-opacity="0" result="BackgroundImageFix"/>
<feColorMatrix in="SourceAlpha" type="matrix" values="0 0 0 0 0 0 0 0 0 0 0 0 0 0 0 0 0 0 127 0" result="hardAlpha"/>
<feOffset dx="2.48943" dy="1.86707"/>
<feGaussianBlur stdDeviation="4.97885"/>
<feComposite in2="hardAlpha" operator="out"/>
<feColorMatrix type="matrix" values="0 0 0 0 0 0 0 0 0 0 0 0 0 0 0 0 0 0 0.25 0"/>
<feBlend mode="normal" in2="BackgroundImageFix" result="effect1_dropShadow_15347_862"/>
<feColorMatrix in="SourceAlpha" type="matrix" values="0 0 0 0 0 0 0 0 0 0 0 0 0 0 0 0 0 0 127 0" result="hardAlpha"/>
<feOffset dy="2.48943"/>
<feGaussianBlur stdDeviation="7.77946"/>
<feComposite in2="hardAlpha" operator="out"/>
<feColorMatrix type="matrix" values="0 0 0 0 0 0 0 0 0 0 0 0 0 0 0 0 0 0 0.25 0"/>
<feBlend mode="normal" in2="effect1_dropShadow_15347_862" result="effect2_dropShadow_15347_862"/>
<feBlend mode="normal" in="SourceGraphic" in2="effect2_dropShadow_15347_862" result="shape"/>
</filter>
<filter id="filter3_di_15347_862" x="97.0117" y="54.9853" width="86.6906" height="140.962" filterUnits="userSpaceOnUse" color-interpolation-filters="sRGB">
<feFlood flood-opacity="0" result="BackgroundImageFix"/>
<feColorMatrix in="SourceAlpha" type="matrix" values="0 0 0 0 0 0 0 0 0 0 0 0 0 0 0 0 0 0 127 0" result="hardAlpha"/>
<feOffset dx="0.796956" dy="0.796956"/>
<feGaussianBlur stdDeviation="2.88896"/>
<feComposite in2="hardAlpha" operator="out"/>
<feColorMatrix type="matrix" values="0 0 0 0 0 0 0 0 0 0 0 0 0 0 0 0 0 0 0.06 0"/>
<feBlend mode="normal" in2="BackgroundImageFix" result="effect1_dropShadow_15347_862"/>
<feBlend mode="normal" in="SourceGraphic" in2="effect1_dropShadow_15347_862" result="shape"/>
<feColorMatrix in="SourceAlpha" type="matrix" values="0 0 0 0 0 0 0 0 0 0 0 0 0 0 0 0 0 0 127 0" result="hardAlpha"/>
<feOffset dx="1.39467" dy="0.796956"/>
<feGaussianBlur stdDeviation="0.398478"/>
<feComposite in2="hardAlpha" operator="arithmetic" k2="-1" k3="1"/>
<feColorMatrix type="matrix" values="0 0 0 0 0 0 0 0 0 0 0 0 0 0 0 0 0 0 0.25 0"/>
<feBlend mode="normal" in2="shape" result="effect2_innerShadow_15347_862"/>
</filter>
<filter id="filter4_f_15347_862" x="19.2842" y="54.5596" width="85.2725" height="57.0845" filterUnits="userSpaceOnUse" color-interpolation-filters="sRGB">
<feFlood flood-opacity="0" result="BackgroundImageFix"/>
<feBlend mode="normal" in="SourceGraphic" in2="BackgroundImageFix" result="shape"/>
<feGaussianBlur stdDeviation="3.73414" result="effect1_foregroundBlur_15347_862"/>
</filter>
<filter id="filter5_f_15347_862" x="25.5145" y="10.996" width="156.834" height="95.7629" filterUnits="userSpaceOnUse" color-interpolation-filters="sRGB">
<feFlood flood-opacity="0" result="BackgroundImageFix"/>
<feBlend mode="normal" in="SourceGraphic" in2="BackgroundImageFix" result="shape"/>
<feGaussianBlur stdDeviation="4.3565" result="effect1_foregroundBlur_15347_862"/>
</filter>
<linearGradient id="paint0_linear_15347_862" x1="583.339" y1="69.5464" x2="784.828" y2="197.074" gradientUnits="userSpaceOnUse">
<stop stop-color="#10C057"/>
<stop offset="0.635417" stop-color="#3FE080" stop-opacity="0.88"/>
<stop offset="0.927083" stop-color="#02D356"/>
</linearGradient>
<radialGradient id="paint1_diamond_15347_862" cx="0" cy="0" r="1" gradientUnits="userSpaceOnUse" gradientTransform="translate(102.092 59.9516) rotate(-167.757) scale(129.622 76.3012)">
<stop stop-color="#7B7B7B"/>
<stop offset="0.673787" stop-color="#818181" stop-opacity="0.8"/>
</radialGradient>
<radialGradient id="paint2_diamond_15347_862" cx="0" cy="0" r="1" gradientUnits="userSpaceOnUse" gradientTransform="translate(64.4473 124.62) rotate(153.457) scale(145.437 87.6922)">
<stop stop-color="#B0B0B0"/>
<stop offset="1" stop-color="#575757" stop-opacity="0.8"/>
</radialGradient>
<radialGradient id="paint3_diamond_15347_862" cx="0" cy="0" r="1" gradientUnits="userSpaceOnUse" gradientTransform="translate(140.685 124.62) rotate(120.719) scale(75.5978 45.0618)">
<stop offset="0.677083"/>
<stop offset="1" stop-opacity="0.8"/>
</radialGradient>
<clipPath id="clip0_15347_862">
<rect width="206" height="206" fill="white"/>
</clipPath>
</defs>
</svg>
